<svg width="53" height="54" viewBox="0 0 53 54" fill="none" xmlns="http://www.w3.org/2000/svg">
<path d="M26.5 4.82775C29.5579 4.82775 32.4834 5.42799 35.2722 6.62825C38.0524 7.82478 40.4526 9.4294 42.4672 11.4439C44.4817 13.4585 46.0863 15.8587 47.2828 18.6389C48.4831 21.4277 49.0833 24.3532 49.0833 27.4111C49.0833 30.469 48.4831 33.3945 47.2828 36.1833C46.0863 38.9635 44.4817 41.3637 42.4672 43.3782C40.4526 45.3928 38.0524 46.9974 35.2722 48.1939C32.4834 49.3942 29.5579 49.9944 26.5 49.9944C23.4421 49.9944 20.5166 49.3942 17.7278 48.1939C14.9476 46.9974 12.5474 45.3928 10.5328 43.3782C8.51831 41.3637 6.91369 38.9635 5.71716 36.1833C4.5169 33.3945 3.91667 30.469 3.91667 27.4111C3.91667 24.3532 4.5169 21.4277 5.71716 18.6389C6.91369 15.8587 8.51831 13.4585 10.5328 11.4439C12.5474 9.4294 14.9476 7.82478 17.7278 6.62825C20.5166 5.42799 23.4421 4.82775 26.5 4.82775ZM0.5 27.4111C0.5 32.1324 1.66221 36.479 3.98589 40.4608C6.3118 44.4465 9.46458 47.5993 13.4503 49.9252C17.4321 52.2489 21.7787 53.4111 26.5 53.4111C31.2213 53.4111 35.5679 52.2489 39.5497 49.9252C43.5354 47.5993 46.6882 44.4465 49.0141 40.4608C51.3378 36.479 52.5 32.1324 52.5 27.4111C52.5 22.6898 51.3378 18.3432 49.0141 14.3613C46.6882 10.3757 43.5354 7.22288 39.5497 4.89697C35.5679 2.5733 31.2213 1.41109 26.5 1.41109C21.7787 1.41109 17.4321 2.5733 13.4503 4.89697C9.46458 7.22288 6.3118 10.3757 3.98589 14.3613C1.66221 18.3432 0.5 22.6898 0.5 27.4111Z" fill="white" stroke="#121427"/>
</svg>
