<svg width="39" height="32" viewBox="0 0 39 32" fill="none" xmlns="http://www.w3.org/2000/svg">
<path d="M31.0203 26.0394C30.7103 26.1771 30.4004 26.3838 30.1593 26.6248C29.9182 26.8659 29.7116 27.1759 29.5738 27.4859L25.0277 22.9742L24.0633 23.9385L21.8592 26.1427C21.7214 26.2804 21.5492 26.3493 21.377 26.3493C21.2048 26.3493 21.0326 26.2804 20.8948 26.1427C20.6193 25.8672 20.6193 25.4539 20.8948 25.1784L21.8592 24.214L22.8235 23.2497L20.4471 20.8733L21.8936 19.4268L24.27 21.8032L25.2343 20.8389L22.8579 18.4625L24.3044 17.016L26.6808 19.3924L27.6451 18.428L28.6095 17.4637C28.885 17.1882 29.2983 17.1882 29.5738 17.4637C29.8493 17.7392 29.8493 18.1525 29.5738 18.428L27.3696 20.6322L26.4053 21.5966L31.0203 26.0394ZM16.0732 13.5375L5.5 2.96433V5.89176L14.6267 15.0185L16.0732 13.5375ZM18.5185 11.1267L9.39176 2H6.46433L17.0375 12.5732L18.5185 11.1267ZM32.0879 27.2103C31.7091 27.2103 31.3647 27.3481 31.1236 27.6236C30.8481 27.8991 30.7103 28.2435 30.7103 28.5879C30.7103 28.9323 30.8481 29.3112 31.1236 29.5523C31.6747 30.1033 32.5357 30.1033 33.0867 29.5523C33.6378 29.0012 33.6378 28.1402 33.0867 27.5892C32.8112 27.3481 32.4668 27.2103 32.0879 27.2103ZM14.6611 21.7688L13.6968 20.8044L32.5012 2H29.5738L12.2503 19.3235L11.286 18.3592L10.3216 17.3948C10.0461 17.1193 9.63284 17.1193 9.35732 17.3948C9.0818 17.6704 9.0818 18.0836 9.35732 18.3592L11.5615 20.5633L12.5258 21.5277L7.94526 26.0394C8.25523 26.1771 8.56519 26.3838 8.80627 26.6248C9.04736 26.8659 9.254 27.1759 9.39176 27.4859L13.9034 22.9742L15.6255 24.6962L17.072 26.1427C17.2097 26.2804 17.3819 26.3493 17.5541 26.3493C17.7263 26.3493 17.8985 26.2804 18.0363 26.1427C18.3118 25.8672 18.3118 25.4539 18.0363 25.1784L17.072 24.214L16.1421 23.2153L33.4656 5.89176V2.96433L14.6611 21.7688ZM6.87761 27.2103C6.49877 27.2103 6.15437 27.3481 5.91328 27.6236C5.36224 28.1747 5.36224 29.0357 5.91328 29.5867C6.46433 30.1378 7.32534 30.1378 7.87638 29.5867C8.15191 29.3112 8.28967 28.9668 8.28967 28.6224C8.28967 28.278 8.15191 27.8991 7.87638 27.6581C7.60086 27.3481 7.25646 27.2103 6.87761 27.2103Z" fill="white"/>
</svg>
